<?xml version="1.0" encoding="UTF-8"?>
<svg xmlns="http://www.w3.org/2000/svg" width="464" height="102" viewBox="0 0 464 102" fill="none">
  <path fill-rule="evenodd" clip-rule="evenodd" d="M60.1851 0.234393C60.1851 0.234393 59.1651 0.424395 58.0351 0.544395C39.7651 2.54439 22.7951 16.6044 17.7851 33.9044C17.5851 34.5844 17.3051 35.5644 17.1551 36.0744C16.9051 36.9344 16.6751 38.1144 16.0051 42.0644C15.3951 45.6644 15.7551 53.8844 16.6551 56.8244C16.7551 57.1644 17.0451 58.1444 17.2851 58.9944C18.9951 65.0244 22.5751 72.4544 24.6951 74.3644L25.1351 74.7644L24.9351 74.2544C24.8251 73.9744 24.4151 73.0044 24.0251 72.0944C19.9551 62.6044 18.8951 50.9144 21.2751 41.7644C27.2551 18.7944 55.5351 3.6144 76.7151 12.0044C80.2651 13.4044 82.3751 14.3844 84.0451 15.3644C97.0551 23.0744 104.025 32.9644 106.355 47.0144C107.015 50.9744 106.945 58.5744 106.215 62.1244C105.295 66.5944 104.475 69.3344 102.995 72.7644C101.955 75.1744 102.205 75.0544 103.795 72.3544C104.975 70.3544 105.685 68.9544 106.945 66.1144C118.545 40.0444 104.125 10.6044 75.5651 2.04439C70.9251 0.654395 60.9251 -0.515607 60.1651 0.234393M16.2551 16.2044C13.7551 19.0244 8.77514 25.7444 8.77514 26.3044C8.77514 26.3844 8.64515 26.5844 8.48515 26.7644C8.11515 27.1844 5.47514 32.3344 4.87514 33.8044C4.62514 34.4244 4.32514 35.1244 4.22514 35.3544C-1.33486 47.6444 -0.704855 65.6844 5.80514 80.9444C7.66514 85.2944 11.4051 92.2344 11.8951 92.2344C12.0051 92.2344 12.0551 92.3144 11.9951 92.4144C11.9351 92.5144 12.0651 92.7544 12.2951 92.9644C12.5151 93.1644 12.7051 93.4244 12.7051 93.5344C12.7051 93.8744 13.7351 94.7144 14.1351 94.7144C14.5351 94.7144 17.8751 89.0944 17.6651 88.7544C17.6351 88.7144 17.7051 88.6144 17.8151 88.5444C18.1751 88.3144 19.7151 85.0744 19.7151 84.5544C19.7151 84.2744 19.4251 83.6744 19.0751 83.2344C16.7851 80.3544 13.7051 75.3444 11.9151 71.5944C10.2351 68.0644 10.0151 67.5544 10.0151 67.2144C10.0151 67.0544 9.93515 66.8344 9.84515 66.7344C9.70515 66.5644 9.18515 65.0544 8.56515 63.0244C4.79515 50.5344 6.28515 37.5244 13.0651 23.9044C13.6051 22.8244 14.0951 21.8944 14.1551 21.8444C14.3451 21.6744 15.7951 19.2244 15.7951 19.0744C15.7951 19.0044 15.9851 18.7344 16.2051 18.4944C16.4351 18.2544 16.7351 17.7944 16.8751 17.4744C17.0151 17.1544 17.1951 16.8944 17.2651 16.8944C17.4751 16.8944 18.0851 15.2344 17.9551 15.0244C17.7351 14.6644 17.4851 14.8344 16.2551 16.2244M106.115 15.0344C105.935 15.3144 106.345 16.3744 106.945 17.2044C108.465 19.3044 111.455 24.7544 112.835 27.9444C120.825 46.4144 118.235 65.5344 105.455 82.5344C103.795 84.7344 103.625 83.9344 107.125 90.5044C109.795 95.5144 110.235 95.6944 112.055 92.5244C112.185 92.2944 112.885 91.1444 113.595 89.9644C123.545 73.5544 126.225 54.1444 120.755 38.1744C118.245 30.8544 112.675 21.3044 108.385 16.9944C108.265 16.8744 107.885 16.4544 107.535 16.0644C106.605 15.0144 106.265 14.7744 106.095 15.0544" fill="#E55014"></path>
  <path fill-rule="evenodd" clip-rule="evenodd" d="M63.1251 33.0344C62.8851 33.5144 62.8451 33.5844 59.6851 39.0644C58.5751 40.9944 57.4751 42.9044 57.2551 43.2944C57.0351 43.6944 56.3651 44.8544 55.7651 45.8744C55.1651 46.8944 54.4951 48.0544 54.2651 48.4544C53.8851 49.1344 50.7951 54.5044 47.5051 60.2244C44.8451 64.8444 41.3951 70.8144 40.2851 72.7144C39.6851 73.7344 38.9451 75.0344 38.6351 75.6044C38.3251 76.1744 37.5851 77.4744 36.9851 78.4944C36.3851 79.5144 35.3151 81.3744 34.5951 82.6244C31.8051 87.4744 31.0551 88.7844 29.9751 90.6244C27.1651 95.4344 24.8851 99.5144 24.9551 99.5844C25.0451 99.6744 25.6751 99.4644 40.3351 94.5244C46.0551 92.5944 50.7851 90.9644 50.8551 90.8944C51.0451 90.7044 50.6351 90.3844 47.6951 88.3744C46.2151 87.3644 44.7851 86.3844 44.5051 86.1844L44.0051 85.8244L44.4551 84.9444C44.7051 84.4644 45.3551 83.2744 45.9051 82.3144C47.0951 80.2244 50.3951 74.3744 51.2051 72.9244C51.5251 72.3544 52.1751 71.1944 52.6451 70.3444C53.1251 69.4944 54.6051 66.8444 55.9451 64.4644C57.2851 62.0744 58.6151 59.7144 58.8951 59.2044C59.1851 58.6944 59.8251 57.5544 60.3151 56.6744C63.5151 50.9844 63.0551 51.3344 64.3451 53.6344C64.6451 54.1744 67.5351 59.0144 70.7551 64.3944C81.9151 83.0244 83.3351 85.4544 83.2351 85.7244C83.1751 85.8744 81.5951 87.0044 79.7151 88.2444C76.6051 90.2844 75.7851 91.0044 76.5751 91.0044C76.7351 91.0044 77.4551 91.1944 78.1751 91.4244C78.8951 91.6544 80.5651 92.1644 81.8651 92.5444C85.1751 93.5144 88.8451 94.6244 91.1551 95.3344C92.2351 95.6644 94.2351 96.2644 95.5951 96.6544C97.8051 97.2944 100.525 98.1044 101.215 98.3244C101.615 98.4544 99.2551 94.0744 97.0251 90.5544C96.7551 90.1244 96.5251 89.7244 96.5251 89.6744C96.5251 89.6244 95.9651 88.6344 95.2851 87.4844C94.6051 86.3344 94.0451 85.3444 94.0451 85.3044C94.0451 85.2644 93.6851 84.6344 93.2551 83.9244C92.8151 83.2144 90.9951 80.0744 89.1951 76.9544C87.3951 73.8344 85.4951 70.5344 84.9651 69.6244C81.5551 63.7544 80.6651 62.2144 79.2451 59.7644C78.3751 58.2644 76.9651 55.8244 76.1151 54.3444C72.2251 47.6144 71.1251 45.7044 71.1251 45.6644C71.1251 45.6344 70.7651 45.0244 70.3251 44.3044C69.5051 42.9644 66.1851 37.2344 64.5751 34.3844C63.5251 32.5344 63.4151 32.4244 63.1051 33.0444" fill="#B34EE8"></path>
  <path fill-rule="evenodd" clip-rule="evenodd" d="M61.7751 76.9044C58.6951 78.1644 57.0951 82.8744 58.7651 85.8044C59.0451 86.3044 59.3651 86.8644 59.4651 87.0544C60.5651 89.0844 64.9851 89.5444 67.1951 87.8444C72.4151 83.8344 67.7651 74.4544 61.7751 76.9044ZM13.1451 94.2044C13.1351 94.6344 13.9251 95.1744 14.3151 94.9944C14.6351 94.8544 14.6151 94.8144 14.1751 94.7444C13.8951 94.6944 13.5451 94.5044 13.4051 94.3144C13.2651 94.1244 13.1451 94.0744 13.1351 94.1944M110.575 94.3844C110.435 94.5544 110.145 94.6944 109.935 94.6944C109.725 94.6944 109.545 94.7944 109.545 94.9144C109.545 95.2944 110.415 95.0244 110.735 94.5344C111.085 94.0144 110.975 93.9044 110.575 94.3844Z" fill="#100F10"></path>
  <path fill-rule="evenodd" clip-rule="evenodd" d="M57.4651 0.354397C56.6951 0.434397 56.0051 0.564396 55.9251 0.644396C55.7651 0.804396 58.1251 0.614397 59.4751 0.354397L60.3051 0.194397H59.5851C59.1851 0.204397 58.2351 0.274397 57.4651 0.344397M67.0151 0.344397C68.5551 0.614397 70.6651 0.784397 70.2151 0.594397C69.9851 0.494397 68.9651 0.364396 67.9451 0.304396C66.7351 0.224396 66.4051 0.244397 67.0151 0.354397M53.8451 0.984396C53.4751 1.0744 53.0951 1.2144 53.0151 1.2944C52.8651 1.4444 54.1551 1.2444 55.0351 0.974396L55.5551 0.814396H55.0351C54.7551 0.814396 54.2151 0.894396 53.8351 0.984396M71.4451 0.964397C72.0651 1.2244 73.5651 1.4444 73.2051 1.2244C73.0351 1.1244 72.4751 0.984396 71.9651 0.914396C71.4051 0.844396 71.1951 0.854397 71.4451 0.964397ZM51.5251 1.5444C51.2451 1.5944 50.9151 1.7244 50.8051 1.8444C50.5851 2.0544 51.4451 1.9044 52.2451 1.5844C52.6851 1.4144 52.3651 1.3944 51.5251 1.5444ZM74.1351 1.5744C74.7751 1.8444 75.8451 2.0544 75.4751 1.8344C75.3051 1.7344 74.8351 1.5944 74.4451 1.5244C73.9551 1.4344 73.8551 1.4544 74.1351 1.5744ZM49.1551 2.3344L48.5351 2.6244L49.1551 2.5044C49.4951 2.4344 49.9151 2.3044 50.0851 2.2144C50.6451 1.9044 49.8551 2.0144 49.1551 2.3444M76.0951 2.2044C76.2651 2.3144 76.7351 2.4544 77.1251 2.5344C77.6051 2.6244 77.7451 2.6044 77.5351 2.4744C77.3651 2.3644 76.8951 2.2244 76.5051 2.1444C76.0251 2.0544 75.8851 2.0744 76.0951 2.2044ZM47.4151 2.8744C47.1451 2.9844 46.9651 3.1244 47.0251 3.1844C47.0851 3.2444 47.4451 3.1544 47.8251 2.9944C48.5851 2.6644 48.2051 2.5644 47.4051 2.8844M78.9051 3.1544C79.4951 3.4244 80.1851 3.7044 80.4551 3.7744C80.7251 3.8444 80.4751 3.6744 79.9051 3.4144C79.3351 3.1444 78.6451 2.8644 78.3551 2.7944C78.0751 2.7244 78.3151 2.8844 78.9051 3.1644M45.4251 3.7244C44.8551 3.9544 44.2951 4.2344 44.1851 4.3444C43.9551 4.5744 44.4551 4.4044 45.9451 3.7344C47.1451 3.1944 46.7651 3.1844 45.4251 3.7344M81.9351 4.4544C82.4851 4.7444 82.9851 4.9344 83.0351 4.8744C83.1351 4.7744 81.3251 3.9044 81.0651 3.9244C80.9951 3.9244 81.3851 4.1644 81.9351 4.4544ZM41.2951 5.7444C38.5851 7.1744 35.8951 8.8044 35.6851 9.1444C35.6051 9.2744 35.7651 9.2444 36.0451 9.0544C37.6051 8.0344 39.7051 6.8044 41.7151 5.7444C42.9651 5.0844 43.8951 4.5444 43.7751 4.5444C43.6651 4.5444 42.5451 5.0844 41.2951 5.7444ZM83.6051 5.2744C84.0451 5.6044 84.4251 5.6744 84.2551 5.3944C84.1951 5.2944 83.9351 5.1644 83.6751 5.0944C83.2251 4.9844 83.2251 4.9844 83.6051 5.2744ZM84.5451 5.6644C84.5451 5.7144 85.1751 6.1144 85.9351 6.5344C88.7751 8.1144 91.9851 10.3344 94.6051 12.5444C95.6451 13.4144 96.1851 13.6144 95.2251 12.7744C92.5551 10.4344 84.5451 5.1044 84.5451 5.6644ZM34.3551 9.9444C31.1451 12.2344 26.4951 17.1044 23.9351 20.8544C22.2551 23.3244 22.8651 22.6644 25.1951 19.5144C27.2651 16.7044 31.8851 11.9644 34.0151 10.4544C35.2551 9.5744 35.5751 9.2944 35.3351 9.2944C35.2951 9.2944 34.8551 9.5844 34.3551 9.9444ZM60.3851 9.8344C43.8751 11.3344 27.1551 23.9444 22.1951 38.6144C20.2851 44.2744 19.2851 54.8344 20.3151 58.4344C20.4751 58.9944 20.4951 58.7844 20.3851 57.5044C19.8851 51.2544 20.4951 45.6244 22.2151 40.5744C25.9851 29.5044 36.7151 18.7344 48.1051 14.5744C48.6751 14.3644 49.4151 14.0744 49.7551 13.9344C50.3651 13.6744 52.2551 13.0744 53.8851 12.6244C58.1351 11.4544 67.2551 11.0844 70.1951 11.9744C70.5351 12.0744 71.1851 12.2244 71.6351 12.2944C72.5651 12.4444 72.9151 12.5444 75.6651 13.4444C87.3351 17.2844 97.0351 25.4844 102.265 35.9044C104.995 41.3444 106.335 46.8644 106.635 53.8944L106.785 57.5044L106.735 53.2744C106.525 36.8344 99.0051 24.3044 84.0351 15.4344C82.3651 14.4444 80.2351 13.4644 76.7051 12.0744C72.6151 10.4544 65.0551 9.42439 60.3951 9.84439M95.9051 13.4544C95.9051 13.6044 99.8851 17.5744 99.9651 17.4944C99.9951 17.4644 99.5851 16.9744 99.0551 16.4144C97.7751 15.0644 95.9151 13.3144 95.9151 13.4544M15.4151 16.8944C14.3851 18.0044 13.5451 18.9844 13.5451 19.0844C13.5451 19.1844 13.1251 19.7344 12.6151 20.3244C12.1051 20.9044 11.6851 21.4644 11.6851 21.5544C11.6851 21.6444 11.3351 22.1644 10.9151 22.7244C9.81513 24.1444 8.22513 26.6944 7.23513 28.6244C6.76513 29.5344 6.19513 30.6444 5.96513 31.1044C5.73513 31.5644 5.29513 32.4844 4.99513 33.1644C4.69513 33.8444 4.35513 34.5644 4.24513 34.7644C4.08513 35.0644 2.53513 39.6544 1.79513 42.0344C1.53513 42.8544 0.625132 47.8144 0.355132 49.8444C-1.16487 61.2444 2.31513 77.6344 8.48513 88.1744C14.0151 97.6144 13.9451 97.5744 16.7051 92.4044C17.5551 90.8144 18.6851 88.7244 19.2251 87.7644C20.5451 85.3944 20.4851 84.7344 18.7251 82.3844C18.0351 81.4744 17.4751 80.6444 17.4751 80.5444C17.4751 80.4444 17.4051 80.3344 17.3151 80.2944C17.1251 80.2144 16.2351 78.9544 16.2351 78.7744C16.2351 78.7044 16.0251 78.3544 15.7751 77.9944C15.2751 77.2944 15.1751 77.1244 14.1451 75.3744C13.1551 73.6844 11.5451 70.4644 11.0851 69.2344C10.8651 68.6444 10.5851 67.9944 10.4751 67.7844C10.2151 67.3244 9.27513 64.6144 9.02513 63.6244C8.92513 63.2144 8.64513 62.1544 8.41513 61.2844C4.87513 47.8044 8.38513 31.0044 17.4051 18.2444C18.2951 16.9744 18.4851 16.2944 18.0951 15.7044C17.9251 15.4344 17.8951 15.4344 17.8951 15.7344C17.8951 15.9144 17.4451 16.7544 16.8951 17.5944C10.6551 27.1544 7.53513 35.8744 6.71513 46.0544C6.28513 51.3544 6.99513 57.7944 8.60513 63.0944C9.21513 65.1244 9.73513 66.6344 9.88513 66.8044C9.97513 66.9144 10.0551 67.1344 10.0551 67.2844C10.0551 67.6144 10.2851 68.1344 11.9551 71.6644C13.7451 75.4144 16.8251 80.4244 19.1151 83.3044C20.1851 84.6444 20.2351 84.4944 16.3051 91.6344C14.1651 95.5244 14.0651 95.6144 13.1551 94.3144C12.8151 93.8344 12.4551 93.3344 12.3551 93.2144C9.43513 89.6944 4.30513 78.2344 2.43513 71.0344C-0.674868 59.0744 0.065134 44.7144 4.26513 35.4244C4.36513 35.1944 4.65513 34.5044 4.91513 33.8744C5.50513 32.4144 8.14513 27.2644 8.52513 26.8344C8.68513 26.6544 8.81513 26.4444 8.81513 26.3744C8.81513 25.8144 13.7851 19.0944 16.2951 16.2744C18.1451 14.1844 17.5851 14.5944 15.4451 16.8944M105.995 15.0344C105.485 15.9344 105.655 16.6944 106.745 18.3044C115.495 31.2444 118.845 46.1244 116.065 59.6744C115.745 61.2544 114.595 65.3144 114.305 65.8744C114.215 66.0444 113.985 66.6444 113.795 67.2144C113.085 69.2644 110.665 74.2844 109.555 75.9844C109.225 76.4944 108.835 77.1444 108.695 77.4344C108.275 78.2844 106.465 80.9644 105.615 81.9944C105.185 82.5244 104.825 83.0144 104.825 83.0844C104.825 83.1544 104.645 83.4044 104.435 83.6344C104.225 83.8644 103.985 84.4344 103.915 84.8944C103.775 85.7644 103.815 85.8744 105.145 88.2644C105.955 89.7244 108.105 93.7044 108.545 94.5644C109.835 97.0844 110.775 96.4144 114.285 90.4744C119.445 81.7244 122.375 73.0944 123.805 62.4644C124.355 58.3944 123.925 49.1444 123.015 45.3244C122.905 44.8744 122.665 43.8044 122.475 42.9544C122.165 41.5744 120.575 36.5044 120.105 35.4144C120.005 35.1844 119.505 34.0544 118.985 32.8944C118.465 31.7344 118.045 30.7244 118.045 30.6444C118.045 30.5644 117.915 30.3544 117.755 30.1744C117.595 29.9944 117.125 29.1944 116.715 28.4044C115.855 26.7444 115.645 26.3844 114.995 25.4744C114.735 25.1144 114.535 24.7544 114.535 24.6744C114.535 24.5944 114.255 24.1844 113.915 23.7544C113.575 23.3244 113.295 22.9044 113.295 22.8344C113.295 22.7644 112.925 22.2544 112.465 21.7144C112.015 21.1744 111.635 20.6644 111.635 20.5744C111.635 20.3944 109.555 17.9044 109.315 17.8044C109.225 17.7644 109.165 17.6244 109.165 17.4844C109.165 17.1944 106.875 14.8744 106.595 14.8744C106.495 14.8744 106.595 15.0444 106.805 15.2544C114.245 22.3644 121.045 35.4644 122.865 46.2544C125.305 60.6644 121.475 78.0744 112.965 91.2644C112.635 91.7744 112.275 92.3544 112.155 92.5444C110.855 94.6944 109.575 95.9144 109.575 94.9944C109.575 94.8844 109.285 94.3044 108.925 93.7044C108.565 93.1044 107.935 91.9644 107.505 91.1644C107.085 90.3744 106.325 88.9744 105.825 88.0644C104.945 86.4744 104.205 84.8344 104.205 84.4744C104.205 84.3844 104.795 83.5244 105.505 82.5644C117.135 67.0944 120.315 50.0844 114.765 32.9344C113.215 28.1344 109.635 20.9044 107.195 17.6444C106.585 16.8244 106.025 15.4844 106.155 15.1344C106.265 14.8444 106.155 14.7644 106.005 15.0244M101.595 19.7744C102.425 20.8844 103.605 22.6044 104.205 23.5944C105.265 25.3444 105.445 25.5744 105.445 25.2444C105.445 24.8144 100.545 17.7844 100.235 17.7744C100.145 17.7744 100.765 18.6744 101.595 19.7744ZM21.2751 25.2444C20.8251 26.0144 20.5651 26.6344 20.7051 26.6344C20.7551 26.6344 21.0351 26.1744 21.3251 25.6044C21.9151 24.4444 21.8851 24.2144 21.2851 25.2444M106.445 27.6044C107.005 28.7244 107.675 30.1644 107.935 30.8244C108.205 31.4744 108.455 31.9744 108.495 31.9344C108.685 31.7444 106.025 25.9344 105.625 25.6944C105.515 25.6244 105.885 26.4944 106.445 27.6044ZM20.2551 27.2144C20.1851 27.4144 20.0851 27.6644 20.0351 27.7844C19.9851 27.8944 20.0951 27.8144 20.2751 27.5944C20.6051 27.1944 20.6951 26.8544 20.4951 26.8544C20.4351 26.8544 20.3251 27.0144 20.2551 27.2144ZM19.0651 29.9644C18.6351 30.9844 18.3151 31.8644 18.3651 31.9144C18.4151 31.9644 18.8051 31.1644 19.2251 30.1244C19.6451 29.0944 19.9651 28.2144 19.9251 28.1744C19.8851 28.1344 19.4951 28.9344 19.0651 29.9644ZM17.6051 33.9544C17.3051 34.9244 17.0951 35.8444 17.1451 35.9844C17.1951 36.1244 17.3051 35.9144 17.3851 35.5244C17.4651 35.1244 17.7151 34.2544 17.9351 33.5844C18.1551 32.9144 18.2851 32.3244 18.2451 32.2744C18.1951 32.2244 17.9151 32.9844 17.6051 33.9544ZM108.685 32.7344C108.755 33.0744 108.885 33.4944 108.975 33.6644C109.285 34.2244 109.175 33.4344 108.845 32.7344L108.555 32.1144L108.675 32.7344M109.275 34.6944C109.345 35.0944 109.495 35.5544 109.605 35.7244C109.735 35.9344 109.755 35.7944 109.665 35.3144C109.595 34.9144 109.445 34.4544 109.335 34.2844C109.205 34.0744 109.185 34.2144 109.275 34.6944ZM65.1051 35.3144C65.4151 35.8844 65.7051 36.3144 65.7451 36.2744C65.8351 36.1844 64.7851 34.2844 64.6451 34.2844C64.5951 34.2844 64.7951 34.7444 65.1051 35.3144ZM109.915 36.9644C109.985 37.4744 110.125 38.0844 110.225 38.3044C110.345 38.5744 110.365 38.3944 110.275 37.7844C110.205 37.2744 110.065 36.6744 109.965 36.4444C109.845 36.1744 109.825 36.3544 109.915 36.9644ZM16.8151 36.6244C16.7551 36.7844 16.6551 37.3644 16.5851 37.9144C16.4551 39.0444 16.7251 38.4244 16.9351 37.1144C17.0651 36.3244 17.0051 36.1144 16.8151 36.6244ZM59.6251 38.9444C59.3851 39.3544 59.2151 39.7244 59.2551 39.7644C59.2951 39.8044 59.5351 39.4644 59.7951 39.0144C60.3751 37.9844 60.2251 37.9244 59.6251 38.9344M110.425 39.3244C110.425 39.5544 110.555 40.4344 110.705 41.2844L110.985 42.8344L110.875 41.2844C110.815 40.4344 110.685 39.5544 110.595 39.3244L110.435 38.9144V39.3244M16.2051 39.6744C16.0251 40.4344 15.7951 42.8444 15.9151 42.7244C16.0551 42.5944 16.5051 39.3844 16.4051 39.2744C16.3651 39.2344 16.2751 39.4044 16.2051 39.6644M68.2751 40.7544C68.6251 41.4244 68.9051 41.8044 68.9051 41.5844C68.9051 41.4744 68.7151 41.1444 68.4851 40.8644C68.2051 40.5244 68.1351 40.4844 68.2751 40.7644M56.9551 43.5244C56.6151 44.1544 56.6851 44.3344 57.0651 43.7944C57.2451 43.5344 57.3451 43.2744 57.2851 43.2144C57.2251 43.1544 57.0751 43.2944 56.9551 43.5244ZM15.5751 44.6444C15.3751 46.3044 15.4151 50.7944 15.6551 53.0244C15.9451 55.7144 16.3451 57.5944 17.5451 61.7344C17.8851 62.9144 18.7751 65.5044 19.0651 66.1744C19.2151 66.5144 19.5351 67.2544 19.7851 67.8244C21.1451 70.9644 22.5751 73.4244 24.3851 75.7344C25.5551 77.2244 25.7751 77.2644 25.1451 75.8844C24.9051 75.3544 24.7551 74.8644 24.8151 74.8044C24.8751 74.7444 24.6151 74.3144 24.2351 73.8444C21.7551 70.7944 18.9651 64.8344 17.3251 59.0544C17.0851 58.2044 16.7951 57.2244 16.6951 56.8844C16.0451 54.7544 15.7951 52.3844 15.7751 48.0544C15.7551 43.0544 15.7651 43.1444 15.5851 44.6444M111.095 47.2744C111.095 50.4144 111.125 50.7844 111.255 49.3344C111.345 48.3644 111.345 46.6444 111.255 45.5144C111.115 43.6744 111.095 43.8644 111.095 47.2744ZM53.6651 49.3444C53.4151 49.7944 53.2451 50.1644 53.2951 50.1644C53.4351 50.1644 54.2851 48.6844 54.1951 48.5944C54.1551 48.5544 53.9151 48.8944 53.6551 49.3444M73.4651 49.7744C73.7051 50.2444 73.9451 50.5744 73.9951 50.5244C74.0951 50.4244 73.2751 48.9344 73.1251 48.9344C73.0751 48.9344 73.2351 49.3144 73.4651 49.7844M110.645 53.2244C110.225 56.4344 109.045 61.0044 107.835 64.1244C106.645 67.1744 105.105 70.3744 103.705 72.6844C102.375 74.8844 102.245 75.0444 102.405 74.3844C102.585 73.6344 102.385 73.8444 101.905 74.9044C101.655 75.4444 101.425 75.9544 101.375 76.0344C101.155 76.4644 101.895 75.8944 102.195 75.4144C102.685 74.6244 102.645 75.2144 102.145 76.1944C101.335 77.7744 101.755 77.5044 102.955 75.6744C106.025 70.9744 108.915 64.0044 110.065 58.5344C110.735 55.3544 110.835 54.7744 110.955 53.0244C111.125 50.6144 110.965 50.7044 110.645 53.2144M62.2351 53.4444C61.7051 54.3744 60.8651 55.8444 60.3651 56.7244C59.8751 57.6044 59.2351 58.7444 58.9451 59.2544C58.6551 59.7644 57.3251 62.1344 55.9951 64.5144C54.6551 66.8944 53.1751 69.5444 52.6951 70.3944C52.2151 71.2444 51.5651 72.4044 51.2551 72.9744C50.9351 73.5444 49.8451 75.4944 48.8151 77.3144C47.7951 79.1344 46.5651 81.3144 46.0851 82.1644C45.6051 83.0144 44.9751 84.1344 44.6751 84.6444C43.9651 85.8744 43.9651 85.8644 45.2751 86.7744C45.8951 87.2044 46.4051 87.5144 46.4051 87.4444C46.4051 87.3744 46.0451 87.0944 45.6051 86.8044L44.8051 86.2744L45.3151 85.3044C45.5951 84.7744 45.9951 84.0544 46.1951 83.7144C46.3951 83.3744 46.8251 82.6344 47.1351 82.0644C48.0751 80.3644 49.5951 77.6544 50.8251 75.4844C51.4651 74.3644 51.9851 73.4044 51.9851 73.3644C51.9851 73.3244 52.2051 72.9344 52.4751 72.5044C52.7451 72.0744 53.2351 71.2244 53.5751 70.5944C53.9151 69.9744 54.6551 68.6244 55.2251 67.6044C55.9918 66.2377 57.1718 64.1477 58.7651 61.3344C59.6951 59.7044 60.4451 58.3344 60.4451 58.2944C60.4451 58.2544 60.7951 57.6344 61.2251 56.9244C61.6551 56.2144 62.2351 55.1944 62.5151 54.6544C62.7951 54.1144 63.1151 53.7044 63.2351 53.7444C63.4151 53.8044 72.6451 68.9844 73.0051 69.8044C73.7451 71.5344 82.8851 86.2344 83.1051 86.0544C83.5751 85.6644 84.4451 87.1944 70.8151 64.4444C67.5951 59.0644 64.7051 54.2244 64.4051 53.6844C63.1851 51.5144 63.3351 51.5344 62.2451 53.4344M49.6151 56.3544C49.4351 56.6944 49.3451 56.9744 49.3951 56.9744C49.4451 56.9744 49.6451 56.6944 49.8151 56.3544C49.9951 56.0144 50.0851 55.7344 50.0351 55.7344C49.9851 55.7344 49.7851 56.0144 49.6151 56.3544ZM47.9651 59.2444C47.7851 59.5844 47.6951 59.8644 47.7451 59.8644C47.7951 59.8644 47.9951 59.5844 48.1651 59.2444C48.3451 58.9044 48.4351 58.6244 48.3851 58.6244C48.3351 58.6244 48.1351 58.9044 47.9651 59.2444ZM106.405 59.7044C106.085 62.3144 106.075 62.4844 106.275 61.8644C106.505 61.1544 106.785 58.6244 106.635 58.6244C106.575 58.6244 106.465 59.1144 106.395 59.7044M20.7351 60.5844C20.8051 61.2644 20.9451 62.0044 21.0451 62.2344C21.1551 62.4844 21.1751 62.1544 21.0951 61.4044C21.0251 60.7244 20.8851 59.9844 20.7851 59.7544C20.6751 59.5044 20.6551 59.8344 20.7351 60.5844ZM79.6751 60.4744C79.9251 60.9244 80.1751 61.2644 80.2151 61.2244C80.3051 61.1344 79.4551 59.6544 79.3151 59.6544C79.2651 59.6544 79.4251 60.0244 79.6851 60.4744M105.825 63.3144C105.485 64.8544 105.475 65.3644 105.795 64.3944C105.965 63.8844 106.075 63.2744 106.035 63.0544C105.985 62.7644 105.925 62.8344 105.825 63.3144ZM21.3651 63.6744C21.4351 64.1244 21.5851 64.6444 21.6851 64.8144C21.8051 65.0044 21.8251 64.8144 21.7351 64.2944C21.6651 63.8444 21.5151 63.3244 21.4151 63.1544C21.2951 62.9644 21.2851 63.1544 21.3651 63.6744ZM82.5651 65.4444C82.8051 65.9044 83.0451 66.2444 83.0951 66.1944C83.1951 66.0944 82.3751 64.6044 82.2251 64.6044C82.1751 64.6044 82.3351 64.9844 82.5651 65.4544M21.9751 66.0544C22.0451 66.4544 22.1951 66.9144 22.3051 67.0844C22.4351 67.2944 22.4551 67.1544 22.3651 66.6744C22.2951 66.2744 22.1451 65.8144 22.0351 65.6444C21.9051 65.4344 21.8851 65.5744 21.9751 66.0544ZM105.105 66.3644C104.985 66.9344 104.915 67.4244 104.955 67.4644C105.075 67.5844 105.505 65.8344 105.415 65.5744C105.365 65.4444 105.235 65.7944 105.105 66.3644ZM22.4951 67.7044C22.4951 67.8744 22.6251 68.2944 22.7851 68.6344L23.0751 69.2544L22.9551 68.6344C22.8051 67.8544 22.4851 67.2244 22.4951 67.7044ZM103.985 69.9244C103.565 71.1344 103.255 72.1644 103.285 72.1944C103.395 72.3044 104.885 68.1244 104.815 67.9144C104.775 67.8044 104.405 68.7144 103.985 69.9244ZM23.0951 69.5244C23.0951 69.8644 24.1651 72.4844 24.2551 72.3844C24.3351 72.3044 23.3451 69.5344 23.1751 69.3644C23.1251 69.3144 23.0851 69.3844 23.0851 69.5144M41.0451 71.2044C40.8151 71.6544 40.6751 72.0344 40.7251 72.0344C40.7751 72.0344 41.0151 71.6644 41.2451 71.2044C41.4751 70.7544 41.6251 70.3744 41.5651 70.3744C41.5051 70.3744 41.2751 70.7444 41.0451 71.2044ZM102.765 72.9844C102.655 73.2844 102.595 73.5644 102.645 73.6144C102.695 73.6644 102.825 73.4144 102.945 73.0644C103.215 72.2944 103.055 72.2144 102.765 72.9744M24.3251 72.6744C24.3251 72.7444 24.5051 73.1944 24.7151 73.6744C24.9351 74.1544 25.0651 74.6644 25.0151 74.7944C24.9651 74.9344 25.0651 75.1544 25.2451 75.3044C25.6951 75.6744 25.6551 75.3044 25.1151 74.0044C24.7051 73.0144 24.3251 72.3744 24.3251 72.6644M88.5451 75.7444C88.7851 76.2144 89.0251 76.5444 89.0751 76.4944C89.1751 76.3944 88.3551 74.9044 88.2051 74.9044C88.1551 74.9044 88.3151 75.2844 88.5451 75.7544M62.3151 76.5044C62.3151 76.5944 62.8451 76.6344 63.5051 76.6044C70.0751 76.2744 71.8751 87.0544 65.5251 88.7644C63.5451 89.3044 59.6751 88.2944 59.6351 87.2244C59.6351 87.1344 59.4051 86.7644 59.1251 86.3944C58.8551 86.0344 58.5551 85.4544 58.4751 85.1144C58.3951 84.7744 58.2551 84.4044 58.1651 84.2844C57.9851 84.0444 58.0451 82.1244 58.2751 81.0844C58.6251 79.4744 60.2551 77.4844 61.6251 76.9844C62.1651 76.7844 62.1651 76.7744 61.7251 76.7544C61.0651 76.7344 58.9551 78.7744 58.4951 79.8844C58.2951 80.3644 58.0351 80.9744 57.9151 81.2244C56.9951 83.1944 57.8951 87.5744 59.5651 89.2444C63.2551 92.9344 70.2951 89.9444 70.0451 84.7844C69.9851 83.4844 69.6751 81.1444 69.5251 80.8744C69.4251 80.6944 69.1551 80.1044 68.9251 79.5644C68.6951 79.0244 68.4051 78.5844 68.2951 78.5844C68.1851 78.5844 68.0951 78.4444 68.0951 78.2744C68.0951 78.1044 68.0051 77.9644 67.8951 77.9644C67.7851 77.9644 67.4451 77.7244 67.1251 77.4344C66.8151 77.1444 66.2951 76.8544 65.9751 76.7844C65.6551 76.7244 65.3451 76.5844 65.2851 76.4844C65.1451 76.2644 62.3051 76.2444 62.3051 76.4544M90.8951 79.8044C91.0751 80.1444 91.2651 80.4244 91.3151 80.4244C91.3651 80.4244 91.2751 80.1444 91.0951 79.8044C90.9151 79.4644 90.7251 79.1844 90.6751 79.1844C90.6251 79.1844 90.7151 79.4644 90.8951 79.8044ZM81.7851 86.6544C80.8351 87.3644 80.7251 87.5344 81.4651 87.1144C82.1051 86.7544 82.7151 86.2044 82.4851 86.2044C82.4351 86.2044 82.1151 86.4044 81.7851 86.6544ZM47.0251 87.8544C47.3051 88.0944 47.7251 88.3844 47.9551 88.5044C48.2351 88.6544 48.2051 88.5844 47.8551 88.2844C47.5751 88.0444 47.1551 87.7544 46.9251 87.6344C46.6451 87.4844 46.6751 87.5544 47.0251 87.8544ZM79.7951 87.9744C79.0151 88.5044 78.7251 88.8744 79.3851 88.4944C79.8751 88.2144 80.8051 87.4544 80.6751 87.4544C80.6151 87.4544 80.2251 87.6844 79.7951 87.9744ZM30.7151 89.1044C30.4851 89.5544 30.3451 89.9344 30.3951 89.9344C30.4451 89.9344 30.6851 89.5644 30.9151 89.1044C31.1451 88.6544 31.2951 88.2744 31.2351 88.2744C31.1751 88.2744 30.9451 88.6444 30.7151 89.1044ZM77.9351 89.2144C77.5151 89.5044 77.1651 89.7844 77.1651 89.8344C77.1651 89.8844 77.5351 89.6844 77.9951 89.3844C78.7151 88.9044 78.9651 88.6844 78.7651 88.6844C78.7351 88.6844 78.3651 88.9244 77.9351 89.2044M49.6951 89.6444C50.9551 90.5844 51.0651 90.7244 50.7351 90.9444C50.3351 91.2044 50.7351 91.2144 51.1451 90.9544C51.4751 90.7444 51.2051 90.4744 49.8151 89.6444C49.2051 89.2844 49.1951 89.2844 49.6851 89.6444M96.5651 89.5944C96.5651 89.7444 97.4251 91.1544 97.5151 91.1544C97.5651 91.1544 97.4151 90.7844 97.1851 90.3244C96.8151 89.6044 96.5651 89.3044 96.5651 89.5944ZM76.3751 90.2344C75.8951 90.5644 75.7651 90.9444 76.1251 90.9444C76.2351 90.9444 76.3351 90.8344 76.3351 90.7144C76.3351 90.5944 76.4951 90.3544 76.6951 90.2044C77.2051 89.8244 76.9351 89.8444 76.3751 90.2344ZM76.8651 91.2244C76.9251 91.3844 76.7251 91.6644 76.4051 91.8744L75.8451 92.2444L76.5551 92.5044C76.9451 92.6544 77.8251 92.9244 78.5051 93.1144C79.1851 93.3044 80.1151 93.5844 80.5651 93.7244C81.0151 93.8744 81.9451 94.1544 82.6251 94.3444C83.3051 94.5444 84.0951 94.7744 84.3851 94.8644C84.6651 94.9544 85.5951 95.2244 86.4451 95.4744C87.2951 95.7144 88.2251 95.9944 88.5051 96.0944C88.7851 96.1944 89.7151 96.4744 90.5651 96.7144C91.4151 96.9544 92.3451 97.2344 92.6251 97.3344C92.9051 97.4344 93.8351 97.7144 94.6851 97.9544C95.5351 98.1944 96.4651 98.4744 96.7451 98.5744C97.0251 98.6744 97.9551 98.9544 98.8051 99.1944C99.6551 99.4344 100.615 99.7344 100.925 99.8544C101.675 100.134 101.805 99.9744 101.375 99.3144C101.025 98.7744 101.095 98.0244 101.485 98.2644C101.595 98.3344 101.695 98.3044 101.695 98.1844C101.695 97.8644 101.325 97.7144 101.235 97.9944C101.175 98.1844 100.745 98.1244 99.6151 97.7744C98.7751 97.5144 96.9651 96.9844 95.6051 96.5844C94.2451 96.1944 92.2451 95.5944 91.1651 95.2644C88.8551 94.5444 85.1851 93.4444 81.8751 92.4744C80.5651 92.0944 78.9051 91.5844 78.1851 91.3544C76.6251 90.8544 76.7051 90.8644 76.8351 91.2144M42.5451 93.7044C26.9451 98.9944 25.0651 99.6144 24.8751 99.4944C24.7651 99.4244 24.6851 99.4744 24.6851 99.5944C24.6851 99.7144 24.8251 99.8144 24.9951 99.8144C25.3851 99.8144 25.3851 99.8944 24.9951 100.654C24.8151 100.994 24.7751 101.264 24.8951 101.264C25.1651 101.264 34.3951 98.2044 34.8151 97.9844C34.9851 97.8844 35.4551 97.7444 35.8451 97.6544C36.2351 97.5644 36.6951 97.4244 36.8751 97.3244C37.0451 97.2344 40.1651 96.1644 43.7951 94.9644C47.4251 93.7644 50.6051 92.6744 50.8651 92.5444L51.3251 92.3144L50.7151 91.8644C50.3751 91.6144 50.1651 91.3544 50.2351 91.2744C50.4851 91.0244 50.0151 91.1744 42.5551 93.7044M25.3251 98.2944C25.0851 98.7044 24.9251 99.0844 24.9851 99.1444C25.0351 99.1944 25.2751 98.8644 25.5151 98.3944C26.0451 97.3444 25.9251 97.2844 25.3351 98.2944" fill="#B1B1B2"></path>
  <path fill-rule="evenodd" clip-rule="evenodd" d="M159.225 35.9444C159.045 36.4444 157.225 41.2244 155.175 46.5744C153.125 51.9244 151.025 57.4444 150.525 58.8244C146.265 70.4844 144.315 73.8644 140.495 76.2244L138.335 77.5544H152.755L150.475 76.1644C146.775 73.9044 146.685 72.6444 149.645 64.4044L151.135 60.2644H165.155L167.015 64.7744C170.385 72.9444 170.225 74.5444 165.885 76.4444C163.755 77.3744 164.415 77.4644 174.025 77.4944L184.475 77.5344L181.425 76.1544C178.865 74.9944 178.035 74.0444 176.215 70.2244C173.825 65.2144 162.965 39.2444 162.175 36.6644C161.645 34.9244 159.775 34.4644 159.245 35.9444M219.095 37.6544C218.495 39.0944 218.005 40.4044 218.005 40.5744C218.005 40.7444 217.395 42.2444 216.655 43.9144C215.915 45.5744 213.785 50.9944 211.935 55.9444C207.125 68.8044 204.405 74.0244 201.495 75.9444L199.045 77.5644H213.165L210.715 75.8944C207.675 73.8244 207.455 69.9444 210.035 64.0444L211.685 60.2644H218.625H225.565L227.555 65.1344C230.375 72.0544 230.235 74.2744 226.825 76.0744L224.125 77.5044L234.215 77.4644C243.805 77.4244 244.185 77.3744 241.725 76.3644C238.445 75.0144 238.185 74.5544 230.295 55.5744C224.588 41.8677 221.455 35.0211 220.895 35.0344C220.495 35.0344 219.675 36.2144 219.075 37.6444M263.805 36.1244C268.065 37.9944 268.085 38.0544 268.085 56.3044C268.085 74.5544 268.075 74.6044 263.805 76.4844C261.805 77.3644 262.525 77.4644 271.315 77.5144L281.035 77.5744L278.525 76.2344C274.925 74.3244 274.235 72.4344 274.225 64.5644C274.225 58.1844 274.785 55.9544 276.445 55.9544C277.675 55.9544 290.795 72.5344 290.795 74.0844C290.795 74.4344 289.745 75.3544 288.455 76.1444L286.115 77.5744H296.565L307.015 77.5444L304.135 76.2044C302.545 75.4644 300.075 73.6144 298.645 72.0744C294.635 67.7844 282.155 51.8044 282.155 50.9644C282.155 49.9644 292.255 40.3444 296.405 37.3944L299.715 35.0444L293.285 35.0744C287.165 35.1044 286.945 35.1544 288.835 36.1744C292.415 38.1144 291.525 39.9244 283.165 47.7244C278.965 51.6544 275.225 54.9744 274.875 55.1044C274.015 55.4244 274.055 42.0944 274.925 39.8044C275.305 38.8044 276.845 37.3344 278.345 36.5444L281.075 35.1044L271.345 35.1344C262.555 35.1544 261.835 35.2544 263.825 36.1344M325.095 36.1344C329.355 38.0044 329.375 38.0644 329.375 56.3144C329.375 74.5644 329.365 74.6144 325.095 76.4944C323.105 77.3744 323.875 77.4744 332.975 77.5044L343.065 77.5444L340.055 76.1844C335.885 74.2844 335.405 73.0144 335.645 64.4244L335.855 57.0344L337.765 56.8144C341.045 56.4344 344.375 60.1944 348.845 69.3444L352.865 77.5844H362.285L360.125 75.7644C358.875 74.7144 356.375 70.6844 354.195 66.2144C352.115 61.9644 349.965 57.9444 349.415 57.2944C348.515 56.2444 348.745 55.9244 351.505 54.4144C359.975 49.7744 358.265 38.4844 348.685 35.8144C344.295 34.5944 322.275 34.8944 325.105 36.1344M382.345 36.3444C386.535 38.3944 386.735 39.3844 386.525 57.1444C386.315 74.8344 386.165 75.4144 381.345 76.8044C379.785 77.2544 382.215 77.4544 389.575 77.4744C399.535 77.5044 399.905 77.4544 397.425 76.4244C393.445 74.7744 393.185 73.5244 393.185 56.0844C393.185 38.6444 393.365 38.0144 397.785 36.0844C399.825 35.1944 399.065 35.1044 389.945 35.1144C379.945 35.1144 379.875 35.1344 382.355 36.3444M422.195 36.5344C424.535 37.7677 425.628 44.8344 425.475 57.7344L425.275 74.2944L422.395 75.9244L419.515 77.5544L426.725 77.5344C433.285 77.5144 433.735 77.4344 431.775 76.5744C427.545 74.7344 427.475 74.4044 427.215 57.5644C427.035 45.5844 427.185 42.1644 427.865 42.3944C428.355 42.5544 434.945 50.4444 442.515 59.9144C450.085 69.3844 456.665 77.2544 457.125 77.4044C457.765 77.6044 457.945 73.2444 457.845 59.7844C457.695 39.4344 457.965 38.0144 462.285 36.2144C464.875 35.1344 464.795 35.1244 457.355 35.1244C449.915 35.1244 449.845 35.1444 452.395 36.2044C453.825 36.7944 455.365 38.0944 455.815 39.0844C456.735 41.0944 456.995 66.0644 456.095 66.0144C455.795 65.9944 453.125 62.8644 450.145 59.0444C447.175 55.2244 442.705 49.5344 440.225 46.3844C437.745 43.2344 434.825 39.4044 433.735 37.8744L431.765 35.0844L425.635 35.1044L419.505 35.1244L422.195 36.5444M344.665 37.1844C354.585 41.6944 350.125 55.9644 338.795 55.9644H335.525V46.3544C335.525 41.0744 335.745 36.5244 336.005 36.2644C336.945 35.3244 341.695 35.8344 344.665 37.1844ZM161.585 51.6444L164.565 58.8544H151.745L152.535 56.8744C155.375 49.7744 156.215 47.4944 156.545 46.0644C157.255 42.9644 158.625 44.4844 161.585 51.6544M221.825 51.3944C225.045 59.6044 225.365 58.9744 218.195 58.7144L212.425 58.5044L215.015 51.4744C218.215 42.8044 218.455 42.8044 221.825 51.3944Z" fill="#100F10"></path>
</svg>
